<?xml version="1.0" standalone="no"?>
<!DOCTYPE svg PUBLIC "-//W3C//DTD SVG 20010904//EN" "http://www.w3.org/TR/2001/REC-SVG-20010904/DTD/svg10.dtd">
<svg version="1.0" xmlns="http://www.w3.org/2000/svg"
  width="512.000000pt" height="512.000000pt" viewBox="0 0 512.000000 512.000000"
  preserveAspectRatio="xMidYMid meet">
  <metadata> Created by potrace 1.16, written by Peter Selinger 2001-2019 </metadata>
  <g transform="translate(0.000000,512.000000) scale(0.100000,-0.100000)"
    fill="#000000" stroke="none">
    <path
      d="M1180 4469 c-245 -21 -465 -66 -562 -115 -72 -37 -98 -68 -98 -118 0
-49 -7 -35 454 -811 l321 -540 5 -187 c5 -176 6 -188 28 -210 21 -23 22 -32
22 -189 1 -391 44 -613 168 -853 218 -425 648 -665 1120 -625 140 12 239 37
333 84 213 107 357 242 463 436 l37 67 57 7 c234 27 453 132 607 291 262 270
346 684 209 1033 -37 92 -108 210 -177 292 l-57 68 20 51 c11 28 20 64 20 80
0 28 -4 31 -71 51 -52 16 -69 25 -67 37 2 11 15 16 42 16 54 1 67 24 116 192
44 156 50 212 22 237 -24 22 -224 87 -268 87 -63 0 -70 -9 -123 -178 -71 -223
-69 -207 -31 -242 48 -45 27 -52 -63 -23 -44 13 -86 22 -94 19 -8 -3 -21 -23
-29 -43 l-15 -38 -95 3 c-177 7 -301 -21 -473 -105 -78 -38 -112 -63 -194
-142 -105 -101 -153 -164 -207 -271 -94 -187 -131 -412 -99 -610 45 -288 235
-553 497 -697 l73 -40 -43 -54 c-131 -161 -322 -241 -533 -225 -111 8 -185 29
-290 80 -239 118 -378 316 -445 634 -16 72 -22 151 -27 308 l-6 210 42 41 41
41 0 181 0 180 169 285 c369 620 602 1027 607 1058 18 120 -225 208 -681 247
-138 12 -585 12 -725 0z m2858 -769 c15 -8 14 -9 -7 -7 -22 2 -26 -5 -53 -98
-15 -55 -26 -106 -23 -113 4 -10 -1 -11 -18 -6 -45 14 -67 24 -67 30 0 21 63
204 70 204 5 0 7 7 4 15 -5 13 -1 13 35 0 23 -8 49 -19 59 -25z m9 -182 c-3
-8 -6 -5 -6 6 -1 11 2 17 5 13 3 -3 4 -12 1 -19z m-408 -501 c102 -36 224
-112 281 -175 188 -204 233 -511 113 -762 -28 -59 -55 -94 -127 -165 -99 -99
-184 -149 -302 -179 -78 -20 -250 -21 -324 -1 -202 53 -388 232 -457 438 -23
71 -27 99 -27 207 -1 140 16 208 80 330 80 153 235 274 414 325 86 24 255 15
349 -18z" />
    <path
      d="M3422 2978 c-15 -15 -16 -154 -1 -163 5 -4 21 -4 35 -1 23 6 24 10
24 79 0 70 -10 97 -35 97 -6 0 -16 -5 -23 -12z" />
    <path
      d="M3133 2884 c-7 -20 31 -103 52 -110 23 -9 47 15 39 40 -10 32 -53 86
-70 86 -8 0 -17 -7 -21 -16z" />
    <path
      d="M3695 2863 c-14 -21 -25 -47 -25 -59 0 -22 24 -39 41 -29 18 12 61
96 55 110 -10 27 -44 16 -71 -22z" />
    <path
      d="M3414 2718 c-4 -13 -6 -67 -5 -121 l1 -97 -40 -39 c-36 -34 -40 -43
-40 -87 0 -85 54 -131 142 -121 49 6 50 6 156 -74 59 -44 117 -82 130 -85 24
-7 52 10 52 31 0 16 -72 82 -170 156 -58 45 -70 59 -70 82 0 40 -29 97 -56
109 -27 13 -34 44 -34 163 0 75 -3 94 -16 99 -28 11 -43 6 -50 -16z" />
    <path
      d="M2920 2675 c-11 -13 -9 -20 10 -39 12 -14 35 -30 51 -36 69 -29 81
29 14 67 -47 27 -58 28 -75 8z" />
    <path
      d="M2854 2386 c-3 -8 -4 -23 -2 -33 3 -15 14 -18 68 -18 l65 0 0 30 c0
30 0 30 -63 33 -48 2 -64 0 -68 -12z" />
    <path
      d="M3903 2384 c-12 -32 11 -49 69 -52 61 -3 84 12 73 48 -6 17 -15 20
-71 20 -51 0 -66 -4 -71 -16z" />
    <path
      d="M3422 1918 c-7 -7 -12 -39 -12 -75 0 -58 2 -63 24 -69 39 -9 46 2 46
76 0 53 -4 69 -16 74 -22 8 -28 8 -42 -6z" />
  </g>
</svg>