<?xml version="1.0" standalone="no"?>
<!DOCTYPE svg PUBLIC "-//W3C//DTD SVG 20010904//EN"
 "http://www.w3.org/TR/2001/REC-SVG-20010904/DTD/svg10.dtd">
<svg version="1.0" xmlns="http://www.w3.org/2000/svg"
 width="1024.000000pt" height="1024.000000pt" viewBox="0 0 1024.000000 1024.000000"
 preserveAspectRatio="xMidYMid meet">
<metadata>
Created by potrace 1.16, written by Peter Selinger 2001-2019
</metadata>
<g transform="translate(0.000000,1024.000000) scale(0.100000,-0.100000)"
fill="#000000" stroke="none">
<path d="M2775 8960 c-204 -7 -246 -10 -500 -31 -342 -29 -645 -82 -877 -155
-304 -96 -415 -220 -350 -392 18 -47 335 -587 922 -1572 169 -283 376 -632
460 -775 83 -143 156 -264 161 -269 5 -6 9 -166 9 -358 0 -386 1 -392 64 -451
l34 -32 5 -425 c6 -533 24 -704 107 -1025 116 -448 336 -852 635 -1164 355
-369 865 -614 1397 -671 283 -30 653 5 905 85 192 61 473 224 665 384 190 159
361 380 489 631 l40 78 72 7 c273 24 508 90 747 210 376 189 656 470 853 856
265 520 278 1152 34 1684 -90 197 -216 388 -349 529 l-80 86 46 117 c50 126
57 180 27 207 -13 12 -249 86 -275 86 -2 0 1 18 6 41 8 31 14 39 27 34 9 -4
39 -9 67 -12 46 -5 54 -3 87 26 41 37 50 61 156 432 79 273 85 325 48 379 -32
49 -59 61 -287 135 -237 77 -315 89 -367 56 -46 -29 -61 -56 -103 -193 -21
-68 -68 -215 -105 -327 -71 -218 -74 -244 -35 -294 11 -14 36 -31 56 -37 32
-11 35 -15 29 -39 -3 -14 -10 -29 -14 -33 -4 -5 -74 15 -156 42 -82 28 -162
50 -177 50 -40 0 -63 -28 -89 -107 l-22 -70 -56 10 c-98 16 -472 2 -581 -22
-238 -52 -525 -177 -710 -308 -113 -81 -312 -275 -400 -392 -217 -288 -359
-641 -400 -996 -14 -129 -12 -383 5 -500 79 -547 386 -1030 853 -1344 55 -37
247 -141 284 -153 35 -13 -171 -245 -305 -344 -135 -100 -296 -171 -477 -210
-114 -25 -395 -26 -527 -1 -202 37 -420 126 -597 244 -121 81 -300 251 -380
362 -180 251 -305 598 -361 1006 -20 141 -31 563 -20 747 l7 127 51 33 c30 19
61 50 74 73 22 39 23 45 23 392 l0 352 59 98 c283 474 749 1261 883 1493 91
157 247 425 347 595 234 397 259 442 266 490 29 181 -184 313 -655 408 -492
100 -1088 139 -1745 117z m5413 -1595 c6 -6 -96 -362 -132 -461 -4 -11 -139
29 -282 81 l-41 16 47 152 c26 84 60 191 74 238 l26 86 152 -53 c83 -30 153
-56 156 -59z m-1091 -1280 c118 -22 221 -58 359 -126 167 -83 264 -149 364
-249 189 -190 325 -460 364 -723 48 -318 -11 -665 -152 -896 -213 -350 -539
-575 -935 -646 -133 -24 -372 -17 -502 14 -362 87 -661 323 -863 681 -48 86
-91 202 -120 324 -23 98 -26 133 -27 291 0 202 11 275 71 455 102 307 304 554
587 719 268 156 562 210 854 156z"/>
<path d="M7879 7433 c-15 -41 -6 -48 12 -9 9 20 12 36 8 36 -5 0 -14 -12 -20
-27z"/>
<path d="M8010 7379 c-6 -24 -29 -104 -51 -177 -23 -73 -38 -140 -35 -148 3
-8 2 -13 -3 -10 -10 7 -33 -76 -23 -85 11 -9 144 -50 149 -45 2 2 5 15 7 28 1
13 6 29 10 36 4 7 12 27 17 44 7 24 5 34 -8 43 -13 10 -13 14 -3 20 9 5 11 4
6 -3 -4 -7 -1 -12 7 -12 17 0 31 45 21 62 -4 6 -3 8 3 5 13 -8 47 108 37 125
-4 6 -3 8 3 5 6 -4 13 7 16 26 3 17 8 39 12 48 4 12 -2 19 -22 27 -15 5 -36
13 -45 17 -13 5 -18 2 -19 -11 0 -16 -2 -16 -11 4 -10 20 -16 24 -34 21 -4 0
-10 5 -15 12 -4 8 -11 -4 -19 -32z m110 -13 c0 -3 -4 -8 -10 -11 -5 -3 -10 -1
-10 4 0 6 5 11 10 11 6 0 10 -2 10 -4z m37 -22 c-3 -3 -12 -4 -19 -1 -8 3 -5
6 6 6 11 1 17 -2 13 -5z m-67 -63 c0 -5 -7 -12 -16 -15 -14 -5 -15 -4 -4 9 14
17 20 19 20 6z m35 -1 c3 -6 -1 -7 -9 -4 -18 7 -21 14 -7 14 6 0 13 -4 16 -10z
m-105 -10 c0 -5 -2 -10 -4 -10 -3 0 -8 5 -11 10 -3 6 -1 10 4 10 6 0 11 -4 11
-10z m34 -28 c-6 -4 -13 -15 -17 -25 -4 -10 -11 -16 -17 -12 -11 7 19 45 35
45 6 0 6 -3 -1 -8z m-47 -212 c11 -16 10 -18 -1 -14 -15 6 -30 34 -18 34 4 0
13 -9 19 -20z m-90 -62 c-3 -8 -6 -5 -6 6 -1 11 2 17 5 13 3 -3 4 -12 1 -19z"/>
<path d="M6873 5972 c-13 -2 -32 -15 -44 -30 -19 -24 -20 -37 -17 -154 3 -114
5 -130 24 -148 31 -32 82 -30 111 4 21 25 23 36 23 150 0 108 -3 126 -20 148
-21 28 -42 36 -77 30z"/>
<path d="M6270 5790 c-31 -31 -24 -62 30 -155 56 -93 81 -110 125 -81 43 28
41 56 -10 145 -64 111 -102 134 -145 91z"/>
<path d="M7433 5788 c-11 -13 -39 -54 -62 -91 -48 -78 -50 -109 -8 -141 26
-19 30 -19 55 -6 31 18 122 164 122 197 0 30 -33 63 -63 63 -13 0 -33 -10 -44
-22z"/>
<path d="M6852 5473 c-7 -3 -20 -19 -28 -36 -14 -25 -16 -63 -13 -243 l4 -213
-46 -29 c-85 -55 -124 -131 -117 -231 9 -124 100 -212 227 -219 46 -3 79 1
105 12 21 9 39 16 40 16 1 0 107 -78 235 -174 141 -105 245 -176 263 -178 37
-6 68 10 87 44 24 42 5 75 -80 143 -42 33 -146 116 -232 184 l-157 124 0 61
c0 101 -51 185 -141 231 l-28 15 -3 231 c-3 229 -3 231 -27 250 -22 18 -61 23
-89 12z"/>
<path d="M5854 5372 c-6 -4 -16 -17 -23 -30 -20 -38 5 -71 94 -124 91 -54 113
-58 143 -25 46 49 23 87 -90 150 -64 36 -101 45 -124 29z"/>
<path d="M5710 4788 c-26 -28 -26 -68 1 -102 20 -25 24 -26 130 -26 96 0 111
2 129 20 26 26 26 80 0 108 -19 20 -31 22 -130 22 -99 0 -111 -2 -130 -22z"/>
<path d="M7815 4790 c-27 -30 -25 -88 4 -111 19 -16 41 -19 128 -19 98 0 105
1 130 26 20 20 24 31 19 57 -11 57 -35 67 -156 67 -95 0 -109 -2 -125 -20z"/>
<path d="M6853 3848 c-35 -17 -45 -58 -41 -168 3 -93 5 -103 27 -121 31 -25
85 -25 111 1 18 18 20 33 20 134 0 94 -3 118 -17 135 -21 25 -70 35 -100 19z"/>
</g>
</svg>
