<?xml version="1.0" standalone="no"?>
<!DOCTYPE svg PUBLIC "-//W3C//DTD SVG 20010904//EN" "http://www.w3.org/TR/2001/REC-SVG-20010904/DTD/svg10.dtd">
<svg version="1.0" xmlns="http://www.w3.org/2000/svg"
  width="192.000000pt" height="192.000000pt" viewBox="0 0 192.000000 192.000000"
  preserveAspectRatio="xMidYMid meet">
  <metadata> Created by potrace 1.16, written by Peter Selinger 2001-2019 </metadata>
  <g transform="translate(0.000000,192.000000) scale(0.100000,-0.100000)"
    fill="#000000" stroke="none">
    <path
      d="M415 1674 c-132 -18 -209 -43 -219 -71 -7 -19 2 -36 160 -304 l134
-225 0 -72 c0 -39 5 -74 10 -77 6 -3 10 -49 10 -103 0 -53 7 -126 15 -161 33
-137 124 -255 244 -314 63 -30 72 -32 181 -32 102 0 121 3 165 25 62 30 129
91 161 146 22 37 30 43 72 49 260 39 389 347 238 569 -35 50 -41 66 -34 85 10
28 3 41 -22 41 -27 0 -34 18 -8 22 17 2 26 16 40 63 26 87 23 96 -42 116 -38
12 -59 14 -68 7 -20 -17 -51 -130 -41 -150 11 -21 9 -21 -25 -8 -20 7 -28 6
-38 -8 -9 -12 -30 -18 -75 -19 -166 -7 -297 -122 -332 -295 -30 -141 41 -302
165 -374 42 -25 44 -28 31 -48 -25 -38 -104 -79 -160 -84 -148 -12 -275 89
-311 247 -21 92 -21 214 -1 231 11 9 15 32 15 81 l0 69 145 247 c80 136 145
255 145 265 0 50 -120 78 -350 83 -96 2 -188 1 -205 -1z m1085 -286 c0 -7 -5
-30 -10 -50 -8 -27 -15 -35 -26 -31 -15 5 -14 15 7 71 9 23 29 30 29 10z
m-105 -272 c64 -29 110 -82 130 -148 18 -61 18 -72 4 -137 -12 -60 -71 -131
-133 -163 -63 -33 -158 -30 -220 6 -51 30 -98 88 -117 143 -6 19 -9 63 -7 98
5 85 44 148 118 193 69 41 148 44 225 8z" />
    <path d="M1282 1089 c2 -19 8 -33 13 -31 15 3 12 55 -3 60 -10 3 -13 -5 -10
-29z" />
    <path d="M1178 1084 c-9 -8 9 -44 22 -44 14 0 12 13 -3 34 -7 9 -16 14 -19 10z" />
    <path d="M1386 1074 c-11 -27 -7 -37 9 -24 16 14 20 40 6 40 -5 0 -12 -7 -15
-16z" />
    <path
      d="M1280 985 c0 -28 -6 -52 -15 -61 -32 -33 -3 -94 37 -79 7 3 35 -11
62 -30 44 -31 66 -37 66 -16 0 4 -20 22 -45 41 -25 19 -45 41 -45 51 0 9 -7
22 -14 29 -8 6 -16 32 -18 58 -4 63 -28 69 -28 7z" />
    <path d="M1095 1001 c-3 -6 3 -15 14 -20 24 -14 31 -14 31 -1 0 14 -38 32 -45
21z" />
    <path d="M1073 888 c2 -7 12 -13 22 -13 10 0 20 6 23 13 2 7 -6 12 -23 12 -17
0 -25 -5 -22 -12z" />
    <path d="M1463 888 c2 -7 14 -13 27 -13 13 0 25 6 28 13 2 8 -7 12 -28 12 -21
0 -30 -4 -27 -12z" />
    <path d="M1282 696 c2 -15 8 -26 13 -26 15 0 12 43 -3 48 -10 3 -13 -4 -10
-22z" />
  </g>
</svg>